<svg xmlns="http://www.w3.org/2000/svg" version="1.0" width="1224.000000pt" height="1224.000000pt" viewBox="0 0 1224.000000 1224.000000" preserveAspectRatio="xMidYMid meet">
<metadata fill="#ffffff">
Created by potrace 1.16, written by Peter Selinger 2001-2019
</metadata>
<g transform="translate(0.000000,1224.000000) scale(0.100000,-0.100000)" fill="#ffffff" stroke="none">
<path d="M5275 10585 c-415 -44 -769 -147 -1134 -329 -620 -309 -1127 -789 -1487 -1406 -214 -366 -379 -814 -459 -1244 -24 -135 -60 -415 -53 -422 2 -2 113 -58 247 -124 l242 -120 503 0 503 0 22 143 c94 609 360 1146 770 1557 229 229 404 356 676 490 277 136 505 203 817 241 l98 11 -1 477 c-1 261 -4 481 -6 488 -3 7 -115 67 -250 133 -278 136 -250 130 -488 105z m449 -111 c120 -58 215 -108 214 -110 -2 -2 -58 -8 -124 -14 -694 -61 -1310 -319 -1879 -789 -205 -169 -497 -495 -653 -728 -354 -528 -577 -1138 -642 -1753 -7 -58 -13 -106 -14 -107 -2 -2 -428 205 -453 220 -6 4 -6 34 -1 79 97 876 426 1615 988 2217 311 334 643 579 1040 770 383 183 728 274 1195 314 108 10 105 10 329 -99z m266 -603 l0 -469 -62 -7 c-859 -95 -1610 -630 -2013 -1433 -140 -280 -228 -554 -275 -859 -10 -68 -22 -127 -25 -133 -6 -10 -946 -15 -956 -5 -3 2 1 57 7 122 92 863 484 1680 1090 2273 183 178 318 289 494 407 498 332 972 502 1570 562 47 4 104 9 128 10 l42 1 0 -469z" fill="#ffffff"/>
<path d="M6031 10085 l1 -487 51 -23 c29 -12 138 -65 242 -117 130 -65 210 -99 255 -107 104 -20 282 -67 348 -91 39 -14 102 -54 174 -108 104 -78 252 -203 271 -227 14 -19 2 -57 -25 -73 -27 -16 -29 -15 -73 16 -25 18 -52 32 -59 32 -20 0 -98 -89 -90 -103 4 -6 18 -26 30 -44 28 -37 30 -60 8 -92 -15 -20 -23 -22 -77 -19 l-61 3 -12 -40 c-27 -97 -29 -89 34 -123 55 -30 58 -33 54 -65 -3 -27 -11 -37 -40 -52 -70 -36 -72 -39 -55 -103 8 -31 20 -60 26 -64 5 -3 34 -4 62 -1 47 5 53 3 73 -22 l22 -28 -30 -52 c-17 -29 -30 -59 -30 -68 0 -16 79 -87 97 -87 6 0 29 14 51 30 48 35 54 36 88 13 24 -15 25 -19 19 -79 l-7 -63 39 -10 c92 -25 98 -25 113 6 35 69 51 84 84 81 26 -3 35 -11 59 -56 l28 -52 42 6 c23 4 53 12 67 18 23 10 25 17 25 76 0 59 2 65 27 79 28 16 25 17 113 -32 36 -21 43 -32 72 -113 17 -49 32 -94 32 -101 1 -8 -41 -12 -138 -15 -121 -3 -143 -6 -168 -23 -31 -22 -178 -243 -623 -930 -88 -137 -165 -254 -169 -258 -5 -5 -19 -3 -32 5 -49 27 -78 62 -98 117 -172 475 -160 423 -104 457 17 10 16 16 -16 95 -58 143 -160 340 -228 442 -146 217 -238 276 -517 328 -103 19 -113 23 -142 55 -37 41 -50 86 -59 210 l-7 91 31 12 c50 21 56 34 53 137 -2 78 1 94 13 94 23 0 18 29 -11 67 l-25 33 39 45 c65 74 96 148 96 231 1 62 -3 77 -29 119 -71 115 -219 150 -350 83 -87 -46 -185 -177 -185 -249 0 -46 -20 -77 -62 -93 -21 -9 -46 -16 -56 -16 -26 0 -62 -29 -73 -59 -16 -39 -12 -123 6 -167 19 -47 77 -109 125 -134 19 -10 61 -21 93 -25 l59 -8 -4 -146 c-2 -120 -6 -151 -21 -176 -30 -50 -128 -105 -276 -155 -159 -54 -213 -81 -298 -145 -120 -90 -197 -218 -228 -381 -15 -78 -39 -296 -50 -454 -3 -47 -8 -106 -11 -132 l-6 -48 35 0 34 0 7 -116 c15 -277 94 -489 201 -544 l47 -25 -6 -212 c-4 -116 -4 -230 0 -253 10 -60 60 -127 142 -189 l72 -54 0 -137 c0 -165 15 -488 35 -742 20 -253 21 -240 -12 -232 -260 57 -326 89 -545 266 -511 412 -847 1016 -959 1723 l-22 140 -50 25 c-28 14 -85 45 -127 70 -41 25 -115 68 -164 94 l-89 48 -533 -7 c-484 -7 -534 -9 -534 -24 0 -53 35 -308 61 -437 146 -749 477 -1384 996 -1913 79 -80 142 -146 140 -147 -7 -6 -479 -26 -498 -20 -24 6 -82 80 -194 246 -54 81 -75 104 -75 82 0 -12 97 -160 169 -257 28 -38 51 -73 51 -76 0 -4 -29 -9 -65 -11 -64 -3 -67 -2 -99 32 -157 168 -377 501 -526 795 -243 480 -376 949 -427 1503 -19 212 -40 266 -29 75 48 -820 365 -1641 881 -2288 53 -66 90 -121 83 -122 -12 -2 -309 -19 -757 -43 -102 -6 -187 -13 -190 -16 -3 -3 -7 -237 -9 -520 l-3 -515 36 -14 c19 -9 131 -63 247 -121 l213 -106 110 6 c61 4 193 13 295 21 102 8 282 21 400 30 118 8 307 21 420 29 113 8 304 22 425 31 121 8 306 22 410 30 105 9 258 20 340 25 197 13 524 36 703 51 78 6 145 10 147 7 18 -17 106 -445 121 -581 l17 -157 -32 -94 c-42 -129 -62 -226 -64 -323 -2 -78 0 -84 26 -110 l27 -28 223 -3 c246 -4 284 2 317 48 21 29 21 29 98 24 106 -8 229 9 255 34 33 34 24 83 -56 302 -102 280 -106 288 -135 310 l-25 21 41 84 c23 46 55 99 71 117 45 52 113 162 186 303 37 72 72 133 79 136 6 4 61 9 121 13 61 4 227 15 370 26 143 10 388 28 545 40 157 11 373 27 480 35 107 8 238 17 290 20 52 3 149 10 215 15 279 22 266 22 272 2 3 -12 87 -60 249 -140 134 -67 246 -122 249 -122 7 0 107 70 285 199 80 58 181 130 225 161 44 31 179 128 300 215 121 87 267 192 325 232 58 41 111 80 118 87 11 11 -33 41 -260 176 -150 89 -286 170 -303 180 -76 44 -298 174 -478 282 -109 64 -281 158 -383 208 l-185 90 36 62 c141 241 284 600 366 912 66 256 133 702 109 731 -7 8 -16 15 -21 15 -5 0 -109 50 -231 112 l-223 112 -377 -3 c-208 -2 -378 0 -378 4 0 19 227 355 240 355 8 0 49 -18 90 -40 l75 -40 418 0 418 0 -5 43 c-3 23 -11 89 -17 147 -30 296 -113 641 -223 932 -58 153 -103 251 -193 425 -40 78 -73 146 -73 151 0 14 122 20 138 8 8 -5 34 -50 58 -99 51 -101 33 -96 179 -52 l80 25 0 111 0 112 53 29 52 30 87 -56 c47 -31 89 -56 92 -56 13 0 151 141 151 155 0 8 -25 53 -56 99 l-55 86 27 47 c16 27 33 52 39 56 5 4 57 7 114 5 l103 -3 29 95 c15 52 29 101 29 108 0 7 -42 32 -94 56 -51 24 -96 48 -98 53 -3 4 -3 36 0 71 l4 63 77 39 c116 59 114 57 97 110 -8 25 -22 71 -31 103 l-16 59 -108 -7 -108 -7 -31 51 c-18 28 -32 57 -32 64 0 7 25 49 55 94 30 46 55 85 55 87 0 6 -38 46 -107 110 l-53 49 -74 -52 c-41 -28 -82 -54 -91 -57 -10 -4 -39 5 -72 22 l-54 29 3 110 3 110 -75 21 c-149 43 -131 48 -187 -58 l-49 -93 -68 0 -68 0 -44 84 c-24 47 -49 88 -55 92 -11 6 -178 -33 -201 -47 -5 -4 -8 -50 -7 -109 4 -115 2 -120 -65 -153 l-44 -23 -85 56 c-47 30 -89 55 -94 55 -11 0 -153 -144 -153 -155 0 -4 26 -46 57 -93 l57 -86 -31 -56 -30 -55 -110 4 -111 3 -16 -56 c-9 -30 -19 -69 -23 -86 -7 -39 -8 -39 -145 58 -266 188 -308 216 -408 271 -397 221 -743 349 -1179 436 -91 18 -190 36 -219 40 l-53 7 2 -487z m2895 368 c26 -49 51 -91 56 -94 5 -3 41 -5 80 -4 l72 1 49 93 50 93 36 -6 c20 -3 60 -13 90 -22 l54 -16 -5 -110 c-5 -95 -4 -110 11 -116 9 -3 38 -18 64 -34 26 -15 52 -28 58 -28 5 0 48 26 95 57 l85 57 59 -59 c33 -33 60 -66 60 -75 0 -8 -23 -50 -50 -93 -28 -43 -50 -82 -50 -87 0 -5 17 -36 38 -70 l37 -61 107 2 c60 1 109 1 111 -2 12 -16 45 -165 38 -172 -5 -5 -47 -29 -93 -52 l-83 -43 -3 -81 -3 -81 96 -47 c58 -29 95 -53 95 -63 0 -8 -11 -49 -24 -90 -19 -61 -27 -75 -42 -73 -38 4 -195 5 -198 2 -14 -19 -66 -121 -66 -130 0 -7 23 -48 50 -91 28 -43 50 -84 50 -91 0 -13 -110 -127 -122 -127 -4 0 -38 19 -75 43 -113 73 -102 71 -174 26 l-64 -39 0 -107 0 -108 -54 -17 c-118 -38 -110 -41 -166 64 l-50 93 -80 0 -80 0 -44 -92 c-27 -57 -50 -93 -60 -93 -26 0 -146 32 -156 42 -5 5 -10 56 -10 114 l0 105 -66 36 -66 37 -81 -52 c-44 -29 -88 -52 -97 -52 -21 0 -125 100 -125 119 0 9 22 50 50 91 27 41 50 82 50 91 0 9 -18 43 -39 77 -37 57 -42 61 -73 57 -18 -3 -64 -6 -101 -8 -55 -4 -69 -1 -76 12 -12 24 -45 160 -40 164 2 2 43 25 91 51 47 26 88 52 90 59 2 7 2 43 -1 81 l-6 69 -87 46 c-48 25 -89 48 -92 51 -2 3 5 41 18 85 l22 80 107 3 108 3 35 54 c19 30 37 61 40 69 3 8 -17 49 -46 90 -28 42 -53 83 -56 91 -6 14 99 135 118 135 4 0 45 -22 89 -50 44 -27 86 -50 92 -50 7 0 40 14 75 32 l64 33 -4 110 -3 109 70 23 c39 12 78 22 87 22 11 1 33 -29 64 -86z m-2659 -18 c110 -52 203 -95 207 -95 3 0 6 4 6 10 0 5 -38 27 -85 50 -47 22 -124 58 -171 81 -47 22 -83 43 -80 46 2 3 67 -7 143 -22 370 -71 698 -184 1026 -353 225 -116 261 -148 75 -67 -242 107 -522 192 -738 225 -41 6 -87 13 -102 16 l-28 6 0 -471 c0 -259 -2 -471 -4 -471 -3 0 -106 50 -230 112 l-226 111 0 459 c0 252 2 458 4 458 2 0 94 -43 203 -95z m455 -160 c320 -63 683 -199 967 -363 113 -65 300 -187 321 -211 8 -9 40 -33 70 -53 30 -20 72 -52 93 -71 31 -29 37 -41 37 -75 0 -46 0 -46 -107 -103 -46 -24 -83 -48 -83 -54 0 -16 47 -181 55 -195 5 -9 35 -10 110 -5 l102 7 32 -46 c17 -26 31 -55 31 -64 0 -9 -18 -44 -40 -77 -74 -111 -74 -106 12 -192 l75 -74 88 55 c49 31 93 56 98 56 5 0 32 -12 59 -27 l49 -27 -2 -110 c-3 -126 -15 -110 118 -146 45 -12 86 -19 92 -15 6 3 25 33 41 66 17 32 34 59 38 59 12 0 192 -373 240 -495 91 -231 164 -493 207 -740 17 -99 45 -325 45 -367 l0 -28 -389 0 -390 0 -6 48 c-3 26 -13 94 -22 152 l-16 105 112 171 c122 188 132 216 85 253 -24 19 -40 21 -179 21 l-152 0 -18 48 c-35 95 -114 250 -193 384 -45 75 -82 146 -82 157 0 11 -9 22 -20 26 -27 9 -93 91 -87 108 3 8 26 24 52 36 25 12 48 28 51 35 3 8 -2 39 -11 70 l-16 56 -68 0 c-63 0 -69 2 -79 25 -17 36 -16 41 18 90 17 24 30 47 29 52 -1 4 -23 28 -49 51 l-49 44 -45 -31 c-48 -33 -66 -37 -97 -21 -16 9 -19 22 -19 74 0 39 -5 67 -12 74 -11 8 -83 26 -112 27 -5 0 -21 -22 -35 -50 -17 -33 -33 -51 -48 -53 -24 -4 -88 48 -98 79 -5 13 -16 19 -38 19 -19 0 -50 13 -75 29 -68 47 -297 156 -417 200 -120 44 -266 85 -360 101 -33 6 -67 13 -75 15 -13 4 -15 64 -16 465 l0 460 27 0 c15 0 83 -11 151 -25z m516 -1145 c172 -83 208 -111 162 -123 -12 -3 -20 -14 -20 -26 0 -12 -3 -21 -6 -21 -4 0 -41 30 -83 68 -102 90 -167 142 -180 142 -5 0 -13 5 -16 10 -13 21 24 8 143 -50z m262 -132 c6 -7 21 -31 34 -53 16 -30 29 -41 50 -43 51 -6 72 6 100 58 27 50 28 50 64 44 51 -9 56 -16 54 -76 -3 -61 1 -69 45 -92 42 -21 42 -21 97 15 l48 32 35 -36 36 -35 -33 -52 -33 -52 19 -37 c26 -49 31 -52 94 -49 49 2 56 -1 67 -23 24 -47 17 -65 -41 -97 -51 -29 -53 -32 -50 -69 2 -21 3 -44 3 -51 1 -7 24 -22 51 -34 54 -22 60 -36 39 -96 -10 -30 -12 -30 -72 -29 l-61 2 -22 -39 c-23 -40 -23 -40 -3 -75 10 -20 24 -43 31 -52 9 -13 6 -22 -12 -47 -29 -39 -52 -40 -102 -5 l-39 26 -45 -21 -44 -22 0 -65 c0 -71 -11 -85 -69 -85 -27 0 -34 6 -52 45 -25 54 -49 69 -95 61 -27 -6 -38 -16 -61 -59 -30 -55 -41 -59 -100 -36 -21 8 -23 15 -23 71 0 63 0 63 -40 86 -43 24 -60 21 -104 -19 -27 -26 -45 -24 -78 8 -34 33 -35 44 -3 91 30 45 31 65 4 103 -19 26 -26 29 -80 29 -59 0 -60 1 -75 35 -22 54 -18 63 41 90 l55 25 0 50 0 50 -55 26 c-59 28 -63 38 -44 93 11 30 12 31 74 31 l64 0 22 45 22 45 -32 45 c-33 46 -33 53 2 93 27 29 46 28 96 -8 23 -17 47 -28 54 -24 69 38 73 44 69 103 -4 62 4 76 48 84 14 2 28 5 32 6 4 0 12 -5 18 -11z m-1758 -217 c12 -16 41 -61 63 -100 22 -39 43 -71 48 -71 13 0 7 -38 -7 -43 -10 -4 -12 -23 -8 -80 6 -103 0 -123 -44 -137 -45 -15 -129 1 -168 31 -35 27 -57 20 -26 -9 23 -22 100 -52 131 -52 13 0 19 -10 23 -42 25 -230 30 -243 112 -325 30 -31 48 -55 41 -58 -45 -13 -227 -35 -297 -35 -120 0 -290 30 -290 51 0 4 26 23 58 43 89 55 101 64 121 105 22 41 25 82 23 274 l-2 127 -44 0 c-29 0 -52 7 -70 21 -33 26 -33 36 4 57 27 16 30 21 29 71 -2 66 19 86 94 94 42 4 55 11 90 47 36 37 66 57 89 59 3 1 17 -12 30 -28z m2559 -657 c88 -154 191 -376 181 -386 -5 -5 -91 -7 -192 -6 l-183 3 -38 115 -38 115 29 30 c36 38 37 52 5 89 -34 40 -39 63 -21 91 15 22 24 25 80 25 62 0 64 1 75 31 6 17 15 28 20 25 5 -4 42 -63 82 -132z m-2237 -203 c151 -38 213 -68 282 -133 56 -52 135 -159 188 -251 67 -117 196 -392 196 -418 0 -4 -45 -33 -100 -64 -55 -31 -100 -64 -100 -72 0 -8 22 -143 49 -301 28 -158 51 -298 53 -312 l3 -25 -158 2 -158 1 -68 65 c-161 152 -200 160 -356 78 -131 -69 -195 -84 -370 -82 -175 1 -325 11 -348 23 -38 20 -48 55 -62 210 -15 169 -15 168 47 168 44 0 51 14 46 103 -4 82 -22 76 -26 -9 l-3 -71 -67 -7 c-37 -4 -148 -14 -247 -22 -98 -8 -184 -19 -189 -24 -22 -22 -36 -10 -36 30 0 68 39 460 56 554 44 255 186 411 462 510 91 32 98 32 186 0 62 -23 90 -27 221 -32 146 -4 242 6 369 39 l38 10 -21 23 c-42 44 -37 45 113 7z m2214 -571 c27 -26 27 -36 -1 -82 -38 -62 -111 -108 -174 -108 -46 0 -58 7 -66 39 -12 47 44 114 123 150 57 26 91 26 118 1z m373 -232 c7 -65 11 -120 8 -122 -7 -7 -149 62 -149 73 0 18 114 181 121 173 4 -4 13 -60 20 -124z m-1966 -85 c4 -10 40 -112 81 -228 42 -115 84 -223 94 -240 10 -16 36 -39 57 -50 21 -10 40 -20 42 -22 2 -1 -17 -35 -42 -75 l-45 -73 -101 1 c-56 0 -103 3 -106 6 -3 3 -16 70 -30 149 -13 79 -34 198 -45 264 -42 237 -42 213 -1 239 84 53 86 53 96 29z m-1605 -247 c0 -49 23 -277 31 -308 7 -26 20 -43 45 -59 32 -19 56 -22 251 -31 270 -12 326 -3 488 78 132 65 162 68 227 22 119 -85 184 -160 126 -144 -142 39 -150 39 -235 18 -45 -11 -98 -19 -117 -16 -34 4 -36 3 -36 -25 0 -36 -7 -41 -110 -81 -396 -152 -684 -201 -833 -143 -79 32 -143 144 -182 316 -16 72 -36 337 -26 349 3 4 78 13 166 21 212 19 205 19 205 3z m4125 -226 c113 -55 207 -104 209 -109 3 -4 -160 -9 -362 -10 -202 -1 -370 -5 -373 -9 -4 -4 -16 -72 -28 -152 -62 -423 -212 -817 -444 -1167 -189 -284 -441 -538 -724 -729 l-113 -76 -212 -14 c-117 -7 -239 -14 -270 -14 l-58 0 0 108 0 108 68 39 c322 187 646 505 866 849 211 329 372 757 416 1100 10 81 32 146 50 146 5 0 87 -38 180 -85 93 -47 175 -85 181 -85 31 0 -12 27 -161 100 -91 44 -169 85 -173 89 -5 5 157 10 368 10 l377 2 203 -101z m-5821 -73 c99 -56 181 -106 183 -112 2 -7 -159 -11 -465 -14 -257 -2 -469 -5 -471 -7 -8 -7 18 -221 44 -376 111 -656 391 -1266 807 -1766 173 -206 474 -487 655 -610 104 -71 82 -68 -63 8 -361 189 -645 408 -936 720 -484 519 -805 1173 -927 1890 -26 149 -46 328 -39 336 3 3 85 -33 181 -80 96 -47 179 -86 186 -86 34 0 -6 25 -154 96 -91 43 -165 82 -165 86 0 4 154 9 343 11 188 1 410 3 492 5 l150 2 179 -103z m4773 -17 c-8 -73 -57 -280 -96 -404 -168 -538 -509 -1026 -949 -1359 -123 -94 -272 -188 -283 -181 -5 3 -9 26 -9 52 0 132 -57 471 -126 744 l-44 178 41 41 c46 46 78 109 79 154 0 17 -18 134 -40 260 -22 127 -40 238 -40 248 0 16 37 17 629 17 l628 0 34 23 c24 16 40 38 54 78 18 50 112 209 123 209 3 0 2 -27 -1 -60z m1313 -78 c0 -15 -7 -84 -15 -152 -60 -488 -208 -963 -422 -1357 -37 -68 -73 -123 -80 -123 -8 0 -31 9 -53 20 -22 11 -44 20 -50 20 -6 0 -10 -45 -10 -123 l0 -123 -52 -71 c-29 -39 -57 -78 -63 -87 -8 -13 -112 -21 -654 -51 -354 -19 -646 -34 -648 -32 -2 2 29 26 69 52 199 132 431 344 581 530 322 401 542 913 607 1415 6 47 13 90 15 97 3 9 102 12 389 13 l386 1 0 -29z m-5831 -175 c58 -357 171 -686 337 -976 262 -459 678 -850 1130 -1062 l100 -47 12 -108 c20 -177 70 -509 103 -685 44 -237 47 -259 38 -259 -25 0 -338 97 -452 139 -514 193 -971 512 -1348 941 -450 512 -750 1151 -864 1840 -23 139 -42 318 -35 330 4 6 133 11 341 12 183 2 397 4 475 6 l141 3 22 -134z m4328 125 c46 -15 -54 -19 -499 -16 -277 1 -505 3 -508 3 -3 1 2 6 10 11 15 10 970 12 997 2z m-2065 -99 c16 -14 61 -17 386 -20 202 -3 369 -6 371 -9 2 -2 12 -50 21 -106 10 -57 31 -175 46 -264 l27 -161 -22 -44 c-12 -24 -35 -60 -52 -79 -37 -43 -36 -44 -85 110 -46 147 -121 348 -140 378 -22 33 -64 48 -201 73 -137 25 -350 29 -478 9 -170 -26 -372 -97 -510 -177 -113 -66 -106 -47 -118 -318 -6 -137 -15 -235 -21 -235 -21 0 -115 82 -145 126 l-31 48 2 240 3 241 85 -3 c100 -4 196 9 335 44 105 26 342 103 410 134 80 35 91 37 117 13z m191 -654 c-6 -6 -50 -39 -99 -73 l-87 -62 2 -84 c2 -64 13 -124 46 -245 75 -275 135 -648 135 -835 l0 -49 -52 -5 c-170 -17 -168 -17 -175 0 -3 10 0 267 7 573 8 306 14 578 14 605 l1 48 95 69 c52 38 102 69 110 69 10 0 11 -3 3 -11z m3190 -1025 l38 -20 0 -169 c0 -94 0 -182 0 -197 -1 -31 2 -31 -331 -48 -424 -22 -590 -31 -750 -40 -455 -26 -1420 -73 -1423 -69 -2 2 1 56 7 119 l11 115 225 12 c124 6 394 21 600 32 206 12 537 30 735 41 198 11 384 23 413 26 l52 5 0 193 c0 106 3 195 6 199 5 5 228 -102 417 -199z m184 -102 c134 -80 446 -264 698 -412 116 -67 226 -133 245 -145 19 -12 61 -37 93 -54 31 -18 55 -36 52 -41 -3 -4 -29 -24 -57 -44 -29 -19 -91 -63 -138 -97 -47 -34 -274 -197 -505 -362 -231 -165 -436 -313 -456 -329 -20 -15 -40 -28 -43 -28 -3 0 -6 67 -6 149 l0 150 -62 -4 c-176 -12 -380 -27 -623 -45 -148 -11 -364 -26 -480 -35 -115 -8 -334 -24 -485 -35 -151 -11 -338 -24 -415 -30 -591 -42 -728 -51 -731 -47 -2 2 14 48 36 102 86 211 163 482 200 705 12 68 23 126 25 128 2 3 77 8 167 13 90 5 294 15 453 24 160 8 367 19 460 25 94 6 298 17 455 25 737 37 899 46 948 51 l52 5 0 195 c0 116 4 194 10 194 5 0 53 -26 107 -58z m-3367 -344 c0 -51 3 -103 6 -114 5 -20 1 -22 -53 -28 -32 -3 -89 -3 -128 1 l-70 8 -1 94 c-1 52 0 101 3 108 5 12 49 17 181 21 l62 2 0 -92z m-2665 -109 c33 -28 92 -75 132 -105 88 -67 93 -74 51 -74 -42 0 -345 -17 -459 -26 l-86 -6 -40 38 c-64 62 -173 185 -173 195 0 5 48 10 108 10 59 1 150 5 202 9 205 15 199 16 265 -41z m-573 -26 c24 -26 72 -78 106 -114 l64 -67 -55 -7 c-30 -4 -64 -4 -75 -1 -11 4 -66 55 -123 114 l-103 107 35 6 c89 16 105 12 151 -38z m-113 -74 c57 -60 101 -112 99 -115 -5 -4 -184 -16 -595 -40 l-113 -6 0 -504 c0 -277 -2 -504 -5 -504 -2 0 -106 50 -230 112 l-225 112 2 501 3 500 80 7 c44 3 233 14 420 23 187 10 342 19 344 21 2 2 29 4 60 3 l56 0 104 -110z m3204 45 l37 -7 0 -468 0 -469 -49 0 c-27 0 -63 3 -80 6 l-32 7 6 256 c3 141 8 352 11 469 l6 212 32 0 c17 0 48 -3 69 -6z m149 -161 c-2 -164 -17 -390 -32 -503 -5 -36 -14 -108 -21 -160 -10 -86 -25 -150 -29 -125 -4 28 -6 866 -2 903 5 42 5 42 46 42 l41 0 -3 -157z m-2387 7 c14 -23 284 -180 425 -247 85 -40 243 -118 350 -172 302 -153 490 -227 745 -291 72 -18 133 -36 137 -39 4 -3 10 -24 13 -46 l7 -41 -239 -17 c-131 -10 -330 -24 -443 -32 -113 -8 -326 -24 -475 -35 -1672 -123 -2057 -150 -2065 -145 -8 5 -8 981 0 988 3 3 142 13 310 21 168 9 327 18 354 20 49 3 50 3 140 -78 174 -155 326 -276 347 -276 19 0 -10 28 -105 102 -50 38 -126 101 -168 139 -43 39 -88 79 -100 89 -13 10 -21 21 -18 24 3 2 33 6 67 7 59 2 64 0 109 -37 101 -85 231 -184 266 -204 57 -32 54 -6 -4 31 -64 41 -262 197 -266 210 -2 5 14 9 35 10 21 0 135 6 253 13 281 17 318 18 325 6z m5606 -715 c-1 -71 -4 -132 -7 -134 -4 -4 -289 133 -408 195 -73 39 -56 48 99 56 77 4 149 9 160 12 11 2 51 3 89 2 l69 -1 -2 -130z m-3295 -132 c-4 -16 -13 -66 -22 -113 -8 -47 -21 -116 -28 -155 -7 -38 -30 -123 -51 -189 l-38 -119 -35 39 -35 38 6 255 c5 189 10 257 19 263 7 4 53 8 101 8 l89 0 -6 -27z m97 -352 c54 -10 101 -21 104 -25 4 -4 -13 -47 -37 -96 l-44 -90 -51 0 c-27 0 -81 -7 -120 -15 -38 -8 -70 -15 -71 -15 0 0 19 57 42 128 24 70 44 128 44 130 0 5 40 0 133 -17z m-325 -231 l4 -110 -89 0 c-93 0 -113 -8 -113 -45 0 -30 -17 -52 -30 -39 -12 12 -44 260 -36 280 5 13 52 18 191 22 l70 2 3 -110z m72 -27 c0 -17 4 -17 130 12 83 18 147 14 180 -13 17 -15 159 -376 193 -493 14 -47 3 -83 -28 -97 -37 -17 -294 -16 -300 1 -2 6 -6 29 -10 50 l-6 37 138 0 c123 0 182 9 157 22 -5 3 -74 6 -154 7 -79 1 -147 5 -151 9 -3 4 -14 30 -24 57 -25 71 -89 197 -133 264 -35 52 -38 62 -40 136 l-2 80 25 -28 c14 -15 25 -35 25 -44z m-45 -137 c36 -38 132 -227 165 -326 12 -36 24 -87 27 -115 4 -44 2 -53 -19 -73 -27 -25 -77 -28 -365 -24 -121 2 -135 4 -154 23 -20 20 -21 29 -16 118 6 97 44 267 73 323 l16 31 23 -29 23 -29 11 28 c6 16 11 41 11 56 0 42 17 51 98 51 72 0 76 -1 107 -34z" fill="#ffffff"/>
<path d="M8965 10046 c-144 -27 -265 -108 -344 -229 -67 -103 -85 -164 -85 -287 -1 -125 22 -205 85 -300 55 -81 118 -134 218 -183 80 -38 91 -41 193 -45 120 -5 165 4 265 50 139 65 257 219 288 376 24 120 -7 275 -75 381 -51 79 -82 110 -159 160 -114 73 -254 101 -386 77z m215 -27 c247 -57 425 -321 382 -569 -43 -251 -250 -430 -497 -430 -91 1 -144 13 -231 56 -169 83 -274 254 -275 445 -2 227 131 411 351 486 72 25 192 30 270 12z" fill="#ffffff"/>
<path d="M7519 8727 c-138 -39 -241 -193 -225 -336 13 -117 98 -226 205 -265 72 -26 177 -19 246 16 110 57 166 144 173 269 4 68 1 85 -23 138 -63 139 -231 219 -376 178z m216 -47 c34 -16 70 -39 82 -52 64 -69 96 -190 73 -273 -7 -25 -15 -45 -19 -44 -3 0 -35 49 -70 110 -36 60 -95 150 -133 199 -37 50 -68 93 -68 96 0 12 79 -9 135 -36z m-120 -27 c59 -74 165 -233 200 -301 15 -29 31 -55 36 -58 25 -15 -49 -98 -120 -134 -142 -71 -326 0 -391 153 -31 72 -25 184 13 249 42 73 143 147 199 148 10 0 38 -26 63 -57z" fill="#ffffff"/>
<path d="M5230 7848 c0 -26 248 -68 397 -68 113 0 313 33 313 51 0 13 -32 11 -97 -6 -40 -11 -105 -16 -212 -15 -149 0 -208 6 -338 33 -35 8 -63 10 -63 5z" fill="#ffffff"/>
<path d="M3583 3363 c-64 -12 -111 -118 -80 -179 28 -54 54 -69 118 -69 52 0 62 3 90 32 64 63 44 174 -37 208 -36 15 -49 16 -91 8z m106 -49 c26 -22 31 -33 31 -71 0 -55 -12 -78 -52 -99 -69 -36 -148 13 -148 93 0 92 99 137 169 77z" fill="#ffffff"/>
<path d="M3624 10242 c-503 -303 -933 -707 -1266 -1192 -108 -157 -288 -466 -288 -495 0 -13 21 -3 27 13 26 67 223 392 323 531 224 313 525 626 830 862 115 89 320 226 441 295 54 31 99 58 99 60 0 17 -55 -8 -166 -74z" fill="#ffffff"/>
<path d="M2772 9871 c-28 -10 -62 -27 -73 -37 -29 -25 -59 -92 -59 -131 0 -41 -11 -47 -85 -48 l-60 0 3 -87 c4 -99 10 -92 -80 -88 -78 3 -81 -1 -73 -100 8 -98 9 -96 -64 -115 -36 -10 -42 -14 -28 -20 28 -12 95 13 114 41 14 22 15 32 5 70 -7 24 -12 55 -12 69 0 24 2 25 65 25 89 0 109 19 99 93 -14 97 -16 92 49 92 65 0 87 17 87 65 0 14 10 46 23 70 23 45 68 77 128 89 17 3 30 10 30 16 1 16 -13 15 -69 -4z" fill="#ffffff"/>
<path d="M9650 8167 c0 -9 13 -77 29 -150 101 -455 156 -905 167 -1372 13 -505 -42 -952 -162 -1318 -37 -113 -41 -165 -6 -87 33 77 91 287 121 445 56 289 66 411 66 845 -1 397 -4 462 -46 800 -37 304 -133 818 -158 843 -8 8 -11 6 -11 -6z" fill="#ffffff"/>
<path d="M9920 7604 c0 -9 13 -93 30 -187 32 -187 53 -360 71 -591 14 -184 6 -569 -15 -720 -15 -101 -15 -128 0 -114 12 12 35 211 43 358 15 302 -11 670 -71 1025 -17 99 -33 195 -35 213 -5 32 -23 45 -23 16z" fill="#ffffff"/>
</g>
</svg>