<?xml version="1.0" standalone="no"?>
<!DOCTYPE svg PUBLIC "-//W3C//DTD SVG 20010904//EN"
 "http://www.w3.org/TR/2001/REC-SVG-20010904/DTD/svg10.dtd">
<svg version="1.0" xmlns="http://www.w3.org/2000/svg"
 width="500.000000pt" height="476.000000pt" viewBox="0 0 500.000000 476.000000"
 preserveAspectRatio="xMidYMid meet">
<metadata>
Created by potrace 1.16, written by Peter Selinger 2001-2019
</metadata>
<g transform="translate(0.000000,476.000000) scale(0.100000,-0.100000)"
fill="#000000" stroke="none">
<path d="M2280 4574 c-14 -4 -70 -176 -70 -215 0 -8 -5 -30 -10 -50 -10 -34
-13 -36 -76 -49 -62 -12 -257 -68 -295 -84 -18 -8 -72 42 -172 157 -27 31 -53
57 -57 57 -14 0 -238 -125 -318 -177 -76 -50 -82 -56 -76 -81 4 -15 10 -34 15
-43 12 -24 59 -196 59 -218 0 -11 -10 -27 -22 -35 -37 -26 -188 -179 -206
-208 -21 -36 -33 -40 -79 -23 -21 7 -83 28 -138 46 -55 17 -106 34 -112 36 -7
3 -13 0 -13 -6 0 -6 -24 -49 -53 -95 -29 -45 -77 -131 -107 -190 l-55 -107
113 -107 113 -107 -16 -60 c-9 -33 -27 -100 -40 -150 -13 -49 -27 -103 -30
-118 -6 -29 -27 -42 -100 -57 -22 -5 -69 -16 -105 -24 -36 -9 -75 -18 -87 -21
-21 -5 -23 -11 -23 -80 l0 -75 284 0 284 0 12 83 c39 274 91 437 202 632 161
285 400 506 698 649 161 77 261 108 442 140 41 7 37 0 218 351 46 88 92 174
102 190 10 17 18 33 18 38 0 7 -272 8 -300 1z"/>
<path d="M2671 4443 c-30 -60 -99 -191 -153 -292 -54 -102 -103 -200 -110
-218 -18 -51 -34 -59 -142 -77 -179 -30 -400 -113 -546 -205 -188 -118 -353
-290 -486 -506 -65 -106 -150 -331 -176 -465 -19 -99 -15 -456 6 -550 81 -368
276 -667 587 -898 84 -63 292 -166 404 -201 166 -51 269 -65 465 -65 128 0
198 5 259 18 293 61 575 214 771 419 77 80 101 120 37 61 -77 -72 -206 -154
-334 -212 -215 -99 -503 -141 -763 -113 -124 13 -346 68 -449 110 -224 93
-424 249 -564 439 -64 88 -161 289 -191 397 -38 138 -46 198 -46 337 0 416
207 803 554 1037 193 130 462 216 699 223 l89 2 79 158 c72 143 81 158 102
153 12 -3 61 -14 108 -25 397 -90 786 -373 996 -725 52 -87 124 -239 153 -325
36 -107 71 -298 77 -422 5 -90 9 -118 21 -123 15 -5 140 58 197 99 17 12 55
37 86 54 30 17 64 41 75 53 22 25 91 62 102 55 10 -6 38 11 31 18 -2 3 -54 17
-114 32 -61 14 -115 28 -122 30 -6 1 -16 29 -23 61 -11 57 -63 253 -75 284 -4
11 27 45 110 119 63 57 115 110 115 117 0 27 -215 383 -232 383 -4 0 -61 -16
-126 -36 -166 -52 -172 -52 -200 -10 -13 19 -71 80 -129 136 -67 66 -103 107
-99 116 3 8 12 40 20 72 9 31 24 84 36 116 11 33 20 67 20 78 0 25 -138 113
-314 200 l-80 39 -100 -106 c-115 -123 -98 -119 -261 -66 -49 16 -120 35 -158
42 -65 12 -67 14 -77 48 -43 164 -66 241 -70 241 -3 0 -30 -48 -59 -107z"/>
<path d="M2806 3796 c-14 -19 -26 -39 -26 -45 0 -6 -9 -26 -19 -44 l-19 -34
67 -12 c361 -67 718 -329 898 -661 57 -104 118 -262 132 -340 28 -162 29 -163
30 -75 0 44 -4 107 -9 140 -15 101 -58 272 -77 312 l-18 38 -3 -29 c-3 -27 -4
-28 -18 -8 -8 11 -15 44 -15 74 -2 43 -10 67 -46 128 -52 88 -114 169 -140
183 -16 9 -16 9 -4 -6 12 -15 11 -17 -3 -17 -18 0 -52 47 -41 58 4 4 10 1 12
-5 3 -7 9 -13 14 -13 31 0 -134 148 -226 203 -62 37 -225 120 -260 132 -61 22
-89 24 -102 7 -7 -9 -13 -12 -12 -7 1 6 1 17 0 25 -1 12 -3 12 -10 2 -9 -15
-43 -13 -41 2 2 9 -19 26 -31 26 -4 0 -18 -15 -33 -34z"/>
<path d="M2490 3465 l0 -125 45 0 45 0 0 125 0 125 -45 0 -45 0 0 -125z"/>
<path d="M3375 3042 c-16 -11 -192 -120 -390 -243 l-361 -225 -82 3 -82 2
-122 97 c-68 54 -164 131 -215 171 -89 71 -94 73 -148 73 l-55 0 0 -53 0 -54
193 -168 c105 -92 204 -178 220 -191 15 -13 27 -34 27 -46 0 -43 41 -107 84
-133 107 -63 237 2 253 126 4 30 14 47 37 65 49 38 279 207 416 307 286 207
311 228 308 256 -4 33 -41 39 -83 13z"/>
<path d="M1332 2424 l3 -45 128 -2 127 -2 0 48 0 47 -131 0 -130 0 3 -46z"/>
<path d="M3467 2463 c-4 -3 -7 -24 -7 -45 l0 -38 130 0 130 0 0 45 0 45 -123
0 c-68 0 -127 -3 -130 -7z"/>
<path d="M4527 2398 c-32 -11 -88 -37 -125 -57 -37 -21 -114 -64 -172 -95 -58
-32 -127 -73 -155 -91 -27 -18 -81 -50 -120 -72 -156 -90 -266 -156 -270 -163
-4 -6 26 -19 243 -100 45 -17 82 -37 82 -44 0 -17 -93 -177 -162 -278 -209
-306 -556 -541 -937 -635 -33 -9 -40 -19 -135 -204 -56 -107 -126 -242 -157
-299 l-57 -105 86 -3 c55 -2 88 1 92 8 4 7 22 64 39 128 18 65 35 124 40 132
5 9 37 19 82 26 123 20 317 73 439 120 442 172 791 472 1024 877 l28 48 26
-17 c15 -9 78 -52 140 -96 115 -81 142 -96 142 -82 0 5 -4 47 -10 94 -5 47
-25 261 -45 475 -37 404 -43 456 -54 454 -3 0 -32 -10 -64 -21z"/>
<path d="M341 2352 l-34 -3 7 -76 c3 -42 8 -78 10 -80 4 -4 225 -65 277 -77
24 -5 28 -13 43 -88 9 -46 30 -126 46 -178 l29 -95 -114 -108 -115 -108 14
-34 c46 -109 202 -365 223 -365 8 0 74 18 148 40 74 22 138 40 143 40 16 0
262 -251 262 -268 0 -14 -21 -89 -66 -231 -8 -25 -14 -48 -14 -52 0 -15 375
-242 392 -237 5 2 58 52 117 111 l107 108 132 -40 c73 -22 157 -45 187 -51
l54 -11 21 -97 c12 -53 29 -121 37 -150 l15 -53 74 3 75 3 95 180 c75 143 194
381 194 389 0 0 -82 1 -183 1 -207 0 -297 12 -460 60 -276 81 -492 210 -697
415 -120 120 -206 240 -290 405 -95 188 -138 331 -163 544 l-12 100 -260 3
c-143 2 -275 2 -294 0z"/>
<path d="M2490 1365 l0 -125 40 0 40 0 0 109 c0 60 3 116 6 125 5 13 -2 16
-40 16 l-46 0 0 -125z"/>
</g>
</svg>
